{"title":"Barry.Munday.2010.720p.BRRip.x264.Feel-Free","uid":6023380,"size":1406141874,"categoryP":"video","categoryS":"hd___movies","magnet":"?xt=urn:btih:2546b8cc791edb60c56e9805743de0c5b50cd9c5&amp;dn=Barry.Munday.2010.720p.BRRip.x264.Feel-Free&amp;tr=udp%3A%2F%2Ftracker.openbittorrent.com%3A80&amp;tr=udp%3A%2F%2Fopen.demonii.com%3A1337&amp;tr=udp%3A%2F%2Ftracker.coppersurfer.tk%3A6969&amp;tr=udp%3A%2F%2Fexodus.desync.com%3A6969","seeders":0,"leechers":1,"uploader":"hiest","files":-1,"time":1291873166,"description":"Genre:Comedy\nLanguage:English\nIMDb:http://www.imdb.com/title/tt0482461/\nSource:720p.BluRay.x264-BRMP\n\nFormat : Matroska\nFile size : 1.30 GiB\nDuration : 1h 34mn\nOverall bit rate : 1 964 Kbps\nMovie name : Avidemux\n\n\nVideo\nCodec ID : V_MPEG4/ISO/AVC\nDuration : 1h 34mn\nBit rate : 1 600 Kbps\nWidth : 1 280 pixels\nHeight : 720 pixels\nDisplay aspect ratio : 16:9\nFrame rate mode : Variable\nFrame rate : 23.976 fps\nColor space : YUV\nChroma subsampling : 4:2:0\nBit depth : 8 bits\nScan type : Progressive\nBits/(Pixel*Frame) : 0.072\nStream size : 1.02 GiB (78%)\n\n\nAudio\nID : 2\nFormat : AC-3\nFormat/Info : Audio Coding 3\nMode extension : CM (complete main)\nCodec ID : A_AC3\nDuration : 1h 34mn\nBit rate mode : Constant\nBit rate : 384 Kbps\nChannel(s) : 6 channels\nChannel positions : Front: L C R, Side: L R, LFE\nSampling rate : 48.0 KHz\nBit depth : 16 bits\nVideo delay : -1mn 5s\nStream size : 261 MiB (20%)\nLanguage : English\n\n\nPlot:\nBarry Munday wakes up after being attacked to realize that he's missing his family jewels. To make matters worse, he learns he's facing a paternity lawsuit filed by a woman he can't remember having sex with.\n\n\n\n\nScreenshots:\n &lt;a href=&quot;\nhttp://rapidhdd.com/images/114640vlcsnap-2010-12-09-05h13m42s181.png&quot; rel=&quot;nofollow&quot; target=&quot;_NEW&quot;&gt;\nhttp://rapidhdd.com/images/114640vlcsnap-2010-12-09-05h13m42s181.png&lt;/a&gt;\n &lt;a href=&quot;\nhttp://www.rapidhdd.com/images/28648vlcsnap-2010-12-09-05h15m09s21.png&quot; rel=&quot;nofollow&quot; target=&quot;_NEW&quot;&gt;\nhttp://www.rapidhdd.com/images/28648vlcsnap-2010-12-09-05h15m09s21.png&lt;/a&gt;\n &lt;a href=&quot;\nhttp://www.rapidhdd.com/images/780368vlcsnap-2010-12-09-05h15m51s190.png&quot; rel=&quot;nofollow&quot; target=&quot;_NEW&quot;&gt;\nhttp://www.rapidhdd.com/images/780368vlcsnap-2010-12-09-05h15m51s190.png&lt;/a&gt;\n &lt;a href=&quot;\nhttp://www.rapidhdd.com/images/551821vlcsnap-2010-12-09-05h14m41s201.png&quot; rel=&quot;nofollow&quot; target=&quot;_NEW&quot;&gt;\nhttp://www.rapidhdd.com/images/551821vlcsnap-2010-12-09-05h14m41s201.png&lt;/a&gt;\n &lt;a href=&quot;\nhttp://www.rapidhdd.com/images/188044vlcsnap-2010-12-09-05h16m18s203.png&quot; rel=&quot;nofollow&quot; target=&quot;_NEW&quot;&gt;\nhttp://www.rapidhdd.com/images/188044vlcsnap-2010-12-09-05h16m18s203.png&lt;/a&gt;\n &lt;a href=&quot;\nhttp://www.rapidhdd.com/images/501438vlcsnap-2010-12-09-05h16m29s60.png&quot; rel=&quot;nofollow&quot; target=&quot;_NEW&quot;&gt;\nhttp://www.rapidhdd.com/images/501438vlcsnap-2010-12-09-05h16m29s60.png&lt;/a&gt;","torrent":{"xt":"urn:btih:2546b8cc791edb60c56e9805743de0c5b50cd9c5","amp;dn":"Barry.Munday.2010.720p.BRRip.x264.Feel-Free","amp;tr":["udp%3A%2F%2Ftracker.openbittorrent.com%3A80","udp%3A%2F%2Fopen.demonii.com%3A1337","udp%3A%2F%2Ftracker.coppersurfer.tk%3A6969","udp%3A%2F%2Fexodus.desync.com%3A6969"],"infoHash":"2546b8cc791edb60c56e9805743de0c5b50cd9c5","infoHashBuffer":{"type":"Buffer","data":[37,70,184,204,121,30,219,96,197,110,152,5,116,61,224,197,181,12,217,197]},"announce":[],"urlList":[]}}